<?xml version="1.0" standalone="no"?>
<!DOCTYPE svg PUBLIC "-//W3C//DTD SVG 20010904//EN"
 "http://www.w3.org/TR/2001/REC-SVG-20010904/DTD/svg10.dtd">
<svg version="1.0" xmlns="http://www.w3.org/2000/svg"
 width="680.000000pt" height="680.000000pt" viewBox="0 0 680.000000 680.000000"
 preserveAspectRatio="xMidYMid meet">
<metadata>
Created by potrace 1.11, written by Peter Selinger 2001-2013
</metadata>
<g transform="translate(0.000000,680.000000) scale(0.100000,-0.100000)"
fill="#000000" stroke="none">
<path d="M5877 6768 c-84 -84 -187 -238 -253 -375 -24 -51 -44 -100 -43 -110
0 -14 2 -15 6 -3 3 8 15 28 27 45 12 16 29 46 40 65 104 196 185 308 209 293
11 -7 -1 -125 -19 -185 -3 -9 -7 -25 -9 -35 -7 -35 -57 -188 -65 -198 -4 -5
-11 -21 -15 -35 -4 -14 -21 -53 -36 -88 -16 -34 -29 -65 -29 -68 0 -3 -11 -30
-25 -60 -14 -30 -37 -82 -51 -117 -113 -269 -231 -516 -317 -665 -41 -70 -89
-156 -106 -192 -52 -104 -64 -114 -311 -271 -52 -33 -149 -92 -215 -131 -66
-39 -185 -114 -265 -166 -79 -52 -156 -97 -171 -98 -43 -5 -44 5 -20 167 6 41
13 94 16 118 2 24 7 60 9 80 3 20 8 74 11 121 3 47 8 105 10 130 2 25 7 74 10
110 4 36 8 83 10 105 8 83 5 293 -4 318 -19 50 -70 56 -107 13 -19 -22 -22
-38 -23 -138 -1 -62 -4 -131 -6 -153 -21 -217 -21 -220 -60 -480 -4 -22 -17
-82 -31 -133 -13 -51 -26 -101 -28 -110 -1 -9 -6 -24 -9 -32 -3 -8 -17 -60
-32 -115 -49 -183 -56 -208 -70 -221 -7 -8 -16 -14 -19 -14 -3 0 -47 -25 -98
-56 -51 -31 -147 -88 -213 -127 -66 -38 -176 -106 -245 -152 -69 -45 -170
-108 -225 -140 -55 -32 -163 -97 -240 -145 -152 -95 -450 -265 -610 -350 -188
-99 -240 -129 -267 -155 -32 -29 -32 -30 -18 -54 23 -44 108 -55 215 -28 48
12 118 28 151 33 20 3 44 8 53 10 9 2 68 15 131 28 122 26 178 36 275 50 22 3
109 19 193 36 83 16 167 32 185 34 36 6 70 13 95 20 9 3 39 7 65 10 27 3 52 8
55 10 4 2 34 7 67 10 33 4 74 9 91 12 21 4 36 1 47 -11 15 -15 14 -21 -9 -83
-14 -37 -30 -83 -36 -102 -5 -19 -15 -41 -20 -47 -6 -7 -8 -13 -5 -13 7 0 -34
-98 -90 -220 -19 -41 -52 -120 -73 -176 -101 -268 -142 -309 -490 -484 -184
-93 -362 -191 -422 -232 -16 -11 -28 -16 -28 -11 0 4 -4 3 -8 -2 -7 -11 -40
-31 -132 -83 -25 -14 -58 -33 -75 -43 -16 -10 -55 -30 -85 -45 -75 -37 -242
-135 -258 -151 -7 -7 -17 -13 -22 -13 -5 0 -15 -6 -22 -12 -22 -21 -209 -143
-264 -172 -28 -15 -109 -71 -181 -124 -72 -53 -141 -104 -153 -112 -12 -8 -34
-24 -49 -35 -14 -11 -30 -23 -36 -27 -5 -4 -55 -44 -110 -89 -55 -45 -112 -91
-127 -102 -34 -25 -73 -98 -65 -120 3 -9 21 -26 39 -38 30 -18 43 -20 145 -14
133 7 130 9 137 -112 12 -209 21 -239 99 -343 61 -80 108 -125 156 -150 l44
-22 71 23 c39 12 102 39 139 60 38 22 71 39 73 39 3 0 10 5 17 10 7 6 30 24
52 41 22 17 56 43 75 59 19 16 53 42 74 60 22 17 60 54 85 82 25 29 75 82 111
119 206 212 263 278 346 399 46 67 205 282 247 335 13 16 97 147 97 151 0 6
103 178 110 184 4 3 10 12 13 20 4 8 18 33 30 55 60 104 202 365 237 437 31
63 68 100 143 141 34 19 80 45 102 57 53 31 227 126 290 158 28 15 59 28 71
29 21 3 21 2 7 -49 -7 -29 -16 -66 -18 -83 -4 -24 -13 -64 -20 -95 -1 -3 -12
-39 -25 -80 -49 -159 -57 -248 -25 -296 43 -65 117 9 141 142 3 15 9 34 13 43
5 9 9 19 9 24 0 12 42 150 52 172 8 18 57 185 65 225 2 8 4 16 5 18 2 1 3 5 4
10 7 28 41 91 59 111 18 19 195 142 232 161 6 3 51 32 100 64 50 33 137 88
195 123 58 35 112 68 120 73 8 5 35 21 60 36 25 15 90 57 146 93 110 72 117
76 219 134 38 22 75 46 83 53 7 8 18 17 25 21 28 18 75 83 72 100 -2 10 -4 21
-4 24 -1 3 -13 11 -28 18 -33 15 -458 24 -518 11 -22 -4 -59 -11 -82 -14 -22
-3 -52 -7 -65 -10 -34 -8 -87 -16 -135 -22 -41 -4 -42 -4 -38 24 2 16 24 66
50 113 45 83 136 266 190 384 74 161 161 324 314 590 64 110 127 222 141 248
24 47 94 127 111 127 4 0 47 25 95 55 167 105 361 185 489 202 22 3 46 10 53
16 17 13 45 67 35 67 -4 0 -2 5 5 12 18 18 15 63 -5 81 -38 34 -88 15 -290
-106 -106 -63 -202 -124 -214 -136 -33 -31 -87 -53 -104 -43 -13 6 9 56 124
282 142 281 377 843 406 970 2 8 14 60 28 115 31 120 38 161 42 240 6 99 -21
120 -78 63z m-867 -2040 c0 -6 -33 -68 -74 -137 -40 -69 -101 -182 -136 -251
-35 -69 -74 -142 -87 -163 -28 -45 -54 -93 -270 -509 -105 -202 -121 -225
-163 -242 -51 -20 -154 -30 -180 -16 -19 10 -20 17 -15 68 4 31 8 64 10 72 3
8 7 38 9 65 12 117 16 151 22 175 3 14 7 50 9 80 6 80 15 171 21 200 2 14 6
45 9 69 6 58 14 83 34 101 13 13 129 87 193 125 19 11 205 129 228 145 46 31
310 195 340 211 40 22 50 23 50 7z m-954 -607 c-2 -3 -7 -49 -10 -101 -4 -53
-8 -106 -10 -117 -3 -12 -7 -48 -11 -80 -3 -33 -7 -70 -10 -84 -7 -46 -16
-104 -21 -144 -27 -227 -23 -222 -159 -242 -16 -2 -36 -6 -44 -9 -14 -4 -14 2
4 91 10 52 52 184 106 340 28 83 53 157 54 165 3 31 28 126 37 143 17 34 41
55 54 50 8 -3 12 -8 10 -12z m-191 -111 c5 -7 -10 -84 -30 -150 -5 -17 -92
-278 -100 -298 -2 -7 -5 -14 -5 -17 -1 -3 -7 -20 -15 -39 -8 -19 -19 -56 -25
-83 -19 -83 -51 -112 -140 -127 -19 -3 -46 -8 -60 -11 -14 -3 -38 -7 -55 -10
-29 -5 -48 -9 -105 -20 -14 -3 -41 -7 -60 -10 -19 -2 -58 -8 -87 -14 -29 -6
-74 -13 -100 -17 -26 -3 -57 -8 -68 -10 -11 -2 -33 -7 -50 -9 -16 -3 -55 -10
-85 -16 -30 -5 -93 -17 -140 -25 -47 -8 -98 -17 -115 -21 -16 -3 -39 -6 -50
-8 -11 -2 -38 -7 -60 -13 -22 -6 -56 -13 -75 -16 -19 -3 -51 -10 -70 -16 -94
-27 -90 -7 10 56 175 107 233 142 460 272 129 74 290 169 357 211 68 42 131
81 140 86 28 16 114 71 328 210 168 109 186 118 200 95z m1255 -614 c0 -19
-49 -59 -136 -109 -69 -41 -119 -75 -153 -107 -17 -16 -63 -44 -141 -88 -93
-51 -315 -187 -318 -194 -2 -5 -8 -8 -14 -8 -6 0 -38 -20 -72 -44 -34 -24 -78
-51 -98 -59 l-37 -15 18 41 c10 23 27 62 39 87 11 25 45 108 75 185 72 181 94
230 109 243 7 6 40 13 73 16 33 3 69 7 80 10 48 9 93 16 140 21 28 4 57 8 65
10 8 2 49 7 90 10 41 4 76 8 77 8 1 1 47 3 102 5 83 2 101 0 101 -12z m-890
-135 c-70 -179 -205 -461 -220 -461 -6 0 -9 3 -7 8 3 4 8 48 12 97 3 50 8 104
10 120 3 17 7 55 10 85 11 119 19 144 53 169 33 23 53 28 114 30 l48 1 -20
-49z m-290 -31 c3 -14 3 -43 -1 -65 -4 -22 -10 -71 -13 -110 -3 -38 -8 -79
-10 -90 -4 -24 -13 -83 -22 -145 -3 -25 -7 -74 -9 -108 -6 -95 -27 -126 -115
-174 -120 -64 -134 -72 -150 -84 -17 -13 -207 -113 -217 -115 -24 -3 -14 45
27 130 26 53 57 125 70 161 12 36 46 126 75 200 29 74 70 187 90 250 21 63 43
121 49 128 13 13 177 52 206 49 8 -1 17 -13 20 -27z m-826 -1178 c2 -4 -20
-50 -49 -102 -30 -52 -70 -126 -89 -165 -19 -38 -45 -86 -58 -106 -13 -20 -36
-58 -53 -85 -16 -27 -32 -51 -35 -54 -3 -3 -48 -72 -99 -153 -52 -82 -99 -154
-105 -160 -6 -7 -56 -73 -111 -147 -92 -126 -152 -200 -260 -325 -24 -27 -53
-61 -65 -75 -182 -213 -280 -305 -425 -402 -176 -117 -209 -133 -272 -133 -68
0 -116 38 -162 128 -30 59 -34 75 -36 161 -2 53 1 115 7 138 5 24 11 50 13 59
2 9 7 32 12 50 22 85 -18 113 -137 94 -66 -10 -112 -13 -123 -8 -7 4 30 36
155 136 14 12 36 29 48 37 13 8 28 21 35 27 34 32 328 238 485 339 96 62 180
118 187 124 7 5 14 10 17 10 3 0 57 31 119 69 154 93 366 215 442 255 22 12
42 23 45 26 3 3 34 20 70 39 36 19 101 54 145 78 44 24 96 51 115 61 19 9 37
19 40 22 3 3 27 16 53 29 26 14 50 28 53 33 7 10 31 10 38 0z"/>
</g>
</svg>
